<svg width="64" height="47" viewBox="0 0 64 47" fill="none" xmlns="http://www.w3.org/2000/svg">
<g style="mix-blend-mode:hard-light">
<path d="M61.8911 0C62.2712 0 62.6428 0.113019 62.9589 0.324773C63.2749 0.536527 63.5213 0.837509 63.6668 1.18964C63.8122 1.54178 63.8503 1.92925 63.7761 2.30307C63.7019 2.6769 63.5189 3.02027 63.2502 3.28978C62.9814 3.55929 62.6389 3.74284 62.266 3.81719C61.8932 3.89155 61.5068 3.8534 61.1556 3.70754C60.8045 3.56168 60.5043 3.31467 60.2931 2.99776C60.0819 2.68085 59.9692 2.30826 59.9692 1.92711C59.9692 1.41601 60.1717 0.92584 60.5322 0.564436C60.8926 0.203032 61.3814 0 61.8911 0Z" fill="url(#paint0_linear_180_23720)"/>
<path d="M61.8911 14.2896C62.2712 14.2896 62.6428 14.4026 62.9589 14.6143C63.2749 14.8261 63.5213 15.1271 63.6668 15.4792C63.8122 15.8313 63.8503 16.2188 63.7761 16.5926C63.7019 16.9665 63.5189 17.3098 63.2502 17.5794C62.9814 17.8489 62.6389 18.0324 62.266 18.1068C61.8932 18.1811 61.5068 18.143 61.1556 17.9971C60.8045 17.8512 60.5043 17.6042 60.2931 17.2873C60.0819 16.9704 59.9692 16.5978 59.9692 16.2167C59.9692 15.7056 60.1717 15.2154 60.5322 14.854C60.8926 14.4926 61.3814 14.2896 61.8911 14.2896Z" fill="url(#paint1_linear_180_23720)"/>
<path d="M61.8911 28.5552C62.2712 28.5552 62.6428 28.6682 62.9589 28.8799C63.2749 29.0917 63.5213 29.3927 63.6668 29.7448C63.8122 30.097 63.8503 30.4844 63.7761 30.8582C63.7019 31.2321 63.5189 31.5755 63.2502 31.845C62.9814 32.1145 62.6389 32.298 62.266 32.3724C61.8932 32.4467 61.5068 32.4086 61.1556 32.2627C60.8045 32.1169 60.5043 31.8699 60.2931 31.5529C60.0819 31.236 59.9692 30.8634 59.9692 30.4823C59.9692 29.9712 60.1717 29.481 60.5322 29.1196C60.8926 28.7582 61.3814 28.5552 61.8911 28.5552Z" fill="url(#paint2_linear_180_23720)"/>
<path d="M61.8911 42.8208C62.2712 42.8208 62.6428 42.9338 62.9589 43.1456C63.2749 43.3573 63.5213 43.6583 63.6668 44.0104C63.8122 44.3626 63.8503 44.7501 63.7761 45.1239C63.7019 45.4977 63.5189 45.8411 63.2502 46.1106C62.9814 46.3801 62.6389 46.5636 62.266 46.638C61.8932 46.7124 61.5068 46.6742 61.1556 46.5283C60.8045 46.3825 60.5043 46.1355 60.2931 45.8186C60.0819 45.5017 59.9692 45.1291 59.9692 44.7479C59.9692 44.2368 60.1717 43.7466 60.5322 43.3852C60.8926 43.0238 61.3814 42.8208 61.8911 42.8208Z" fill="url(#paint3_linear_180_23720)"/>
<path d="M47.4947 3.87863C48.5562 3.87863 49.4166 3.01584 49.4166 1.95152C49.4166 0.887208 48.5562 0.0244141 47.4947 0.0244141C46.4333 0.0244141 45.5728 0.887208 45.5728 1.95152C45.5728 3.01584 46.4333 3.87863 47.4947 3.87863Z" fill="url(#paint4_linear_180_23720)"/>
<path d="M47.4948 14.2896C47.8754 14.2872 48.2482 14.3982 48.5658 14.6085C48.8835 14.8188 49.1317 15.1189 49.279 15.4708C49.4263 15.8227 49.4661 16.2106 49.3933 16.5852C49.3205 16.9598 49.1385 17.3043 48.8702 17.575C48.6019 17.8458 48.2594 18.0305 47.8863 18.1059C47.5131 18.1812 47.1261 18.1438 46.7742 17.9983C46.4223 17.8528 46.1214 17.6058 45.9097 17.2886C45.698 16.9714 45.585 16.5984 45.585 16.2167C45.585 15.7077 45.7858 15.2194 46.1436 14.8583C46.5014 14.4972 46.9872 14.2928 47.4948 14.2896Z" fill="url(#paint5_linear_180_23720)"/>
<path d="M47.4948 28.5552C47.8754 28.5528 48.2482 28.6638 48.5658 28.8741C48.8835 29.0844 49.1317 29.3845 49.279 29.7364C49.4263 30.0883 49.4661 30.4762 49.3933 30.8508C49.3205 31.2254 49.1385 31.5699 48.8702 31.8407C48.6019 32.1114 48.2594 32.2961 47.8863 32.3715C47.5131 32.4468 47.1261 32.4094 46.7742 32.2639C46.4223 32.1184 46.1214 31.8714 45.9097 31.5542C45.698 31.2371 45.585 30.864 45.585 30.4823C45.585 29.9733 45.7858 29.485 46.1436 29.1239C46.5014 28.7629 46.9872 28.5584 47.4948 28.5552Z" fill="url(#paint6_linear_180_23720)"/>
<path d="M47.4948 42.8208C47.8754 42.8184 48.2482 42.9294 48.5658 43.1397C48.8835 43.35 49.1317 43.6501 49.279 44.002C49.4263 44.3539 49.4661 44.7418 49.3933 45.1164C49.3205 45.491 49.1385 45.8355 48.8702 46.1063C48.6019 46.377 48.2594 46.5618 47.8863 46.6371C47.5131 46.7125 47.1261 46.675 46.7742 46.5295C46.4223 46.384 46.1214 46.137 45.9097 45.8198C45.698 45.5027 45.585 45.1296 45.585 44.7479C45.585 44.2389 45.7858 43.7506 46.1436 43.3895C46.5014 43.0285 46.9872 42.824 47.4948 42.8208Z" fill="url(#paint7_linear_180_23720)"/>
<path d="M33.1108 0C33.491 0 33.8626 0.113019 34.1786 0.324773C34.4947 0.536527 34.741 0.837509 34.8865 1.18964C35.032 1.54178 35.07 1.92925 34.9958 2.30307C34.9217 2.6769 34.7387 3.02027 34.4699 3.28978C34.2011 3.55929 33.8586 3.74284 33.4858 3.81719C33.113 3.89155 32.7265 3.8534 32.3754 3.70754C32.0242 3.56168 31.724 3.31467 31.5128 2.99776C31.3017 2.68085 31.189 2.30826 31.189 1.92711C31.189 1.41601 31.3914 0.92584 31.7519 0.564436C32.1123 0.203032 32.6011 0 33.1108 0Z" fill="url(#paint8_linear_180_23720)"/>
<path d="M33.1108 14.2896C33.491 14.2896 33.8626 14.4026 34.1786 14.6143C34.4947 14.8261 34.741 15.1271 34.8865 15.4792C35.032 15.8313 35.07 16.2188 34.9958 16.5926C34.9217 16.9665 34.7387 17.3098 34.4699 17.5794C34.2011 17.8489 33.8586 18.0324 33.4858 18.1068C33.113 18.1811 32.7265 18.143 32.3754 17.9971C32.0242 17.8512 31.724 17.6042 31.5128 17.2873C31.3017 16.9704 31.189 16.5978 31.189 16.2167C31.189 15.7056 31.3914 15.2154 31.7519 14.854C32.1123 14.4926 32.6011 14.2896 33.1108 14.2896Z" fill="url(#paint9_linear_180_23720)"/>
<path d="M33.1108 28.5552C33.491 28.5552 33.8626 28.6682 34.1786 28.8799C34.4947 29.0917 34.741 29.3927 34.8865 29.7448C35.032 30.097 35.07 30.4844 34.9958 30.8582C34.9217 31.2321 34.7387 31.5755 34.4699 31.845C34.2011 32.1145 33.8586 32.298 33.4858 32.3724C33.113 32.4467 32.7265 32.4086 32.3754 32.2627C32.0242 32.1169 31.724 31.8699 31.5128 31.5529C31.3017 31.236 31.189 30.8634 31.189 30.4823C31.189 29.9712 31.3914 29.481 31.7519 29.1196C32.1123 28.7582 32.6011 28.5552 33.1108 28.5552Z" fill="url(#paint10_linear_180_23720)"/>
<path d="M33.1108 42.8208C33.491 42.8208 33.8626 42.9338 34.1786 43.1456C34.4947 43.3573 34.741 43.6583 34.8865 44.0104C35.032 44.3626 35.07 44.7501 34.9958 45.1239C34.9217 45.4977 34.7387 45.8411 34.4699 46.1106C34.2011 46.3801 33.8586 46.5636 33.4858 46.638C33.113 46.7124 32.7265 46.6742 32.3754 46.5283C32.0242 46.3825 31.724 46.1355 31.5128 45.8186C31.3017 45.5017 31.189 45.1291 31.189 44.7479C31.189 44.2368 31.3914 43.7466 31.7519 43.3852C32.1123 43.0238 32.6011 42.8208 33.1108 42.8208Z" fill="url(#paint11_linear_180_23720)"/>
<path d="M18.7144 0C19.0946 0 19.4661 0.113019 19.7822 0.324773C20.0983 0.536527 20.3445 0.837509 20.49 1.18964C20.6355 1.54178 20.6736 1.92925 20.5994 2.30307C20.5253 2.6769 20.3422 3.02027 20.0734 3.28978C19.8046 3.55929 19.4622 3.74284 19.0894 3.81719C18.7165 3.89155 18.3301 3.8534 17.979 3.70754C17.6278 3.56168 17.3276 3.31467 17.1164 2.99776C16.9052 2.68085 16.7925 2.30826 16.7925 1.92711C16.7925 1.41601 16.995 0.92584 17.3554 0.564436C17.7158 0.203032 18.2047 0 18.7144 0Z" fill="url(#paint12_linear_180_23720)"/>
<path d="M18.7144 14.2896C19.0946 14.2896 19.4661 14.4026 19.7822 14.6143C20.0983 14.8261 20.3445 15.1271 20.49 15.4792C20.6355 15.8313 20.6736 16.2188 20.5994 16.5926C20.5253 16.9665 20.3422 17.3098 20.0734 17.5794C19.8046 17.8489 19.4622 18.0324 19.0894 18.1068C18.7165 18.1811 18.3301 18.143 17.979 17.9971C17.6278 17.8512 17.3276 17.6042 17.1164 17.2873C16.9052 16.9704 16.7925 16.5978 16.7925 16.2167C16.7925 15.7056 16.995 15.2154 17.3554 14.854C17.7158 14.4926 18.2047 14.2896 18.7144 14.2896Z" fill="url(#paint13_linear_180_23720)"/>
<path d="M18.7144 28.5552C19.0946 28.5552 19.4661 28.6682 19.7822 28.8799C20.0983 29.0917 20.3445 29.3927 20.49 29.7448C20.6355 30.097 20.6736 30.4844 20.5994 30.8582C20.5253 31.2321 20.3422 31.5755 20.0734 31.845C19.8046 32.1145 19.4622 32.298 19.0894 32.3724C18.7165 32.4467 18.3301 32.4086 17.979 32.2627C17.6278 32.1169 17.3276 31.8699 17.1164 31.5529C16.9052 31.236 16.7925 30.8634 16.7925 30.4823C16.7925 29.9712 16.995 29.481 17.3554 29.1196C17.7158 28.7582 18.2047 28.5552 18.7144 28.5552Z" fill="url(#paint14_linear_180_23720)"/>
<path d="M18.7144 42.8208C19.0946 42.8208 19.4661 42.9338 19.7822 43.1456C20.0983 43.3573 20.3445 43.6583 20.49 44.0104C20.6355 44.3626 20.6736 44.7501 20.5994 45.1239C20.5253 45.4977 20.3422 45.8411 20.0734 46.1106C19.8046 46.3801 19.4622 46.5636 19.0894 46.638C18.7165 46.7124 18.3301 46.6742 17.979 46.5283C17.6278 46.3825 17.3276 46.1355 17.1164 45.8186C16.9052 45.5017 16.7925 45.1291 16.7925 44.7479C16.7925 44.2368 16.995 43.7466 17.3554 43.3852C17.7158 43.0238 18.2047 42.8208 18.7144 42.8208Z" fill="url(#paint15_linear_180_23720)"/>
<path d="M4.31836 0C4.69848 0 5.07007 0.113019 5.38613 0.324773C5.70219 0.536527 5.94855 0.837509 6.09402 1.18964C6.23948 1.54178 6.27751 1.92925 6.20335 2.30307C6.1292 2.6769 5.94619 3.02027 5.6774 3.28978C5.40861 3.55929 5.06618 3.74284 4.69337 3.81719C4.32055 3.89155 3.93407 3.8534 3.58288 3.70754C3.2317 3.56168 2.93155 3.31467 2.72036 2.99776C2.50918 2.68085 2.39648 2.30826 2.39648 1.92711C2.39648 1.67404 2.4462 1.42345 2.54278 1.18964C2.63937 0.955835 2.78093 0.743385 2.9594 0.564436C3.13787 0.385487 3.34971 0.243541 3.58288 0.146694C3.81606 0.0498477 4.06597 0 4.31836 0Z" fill="url(#paint16_linear_180_23720)"/>
<path d="M4.31836 14.2896C4.69848 14.2896 5.07007 14.4026 5.38613 14.6143C5.70219 14.8261 5.94855 15.1271 6.09402 15.4792C6.23948 15.8313 6.27751 16.2188 6.20335 16.5926C6.1292 16.9665 5.94619 17.3098 5.6774 17.5794C5.40861 17.8489 5.06618 18.0324 4.69337 18.1068C4.32055 18.1811 3.93407 18.143 3.58288 17.9971C3.2317 17.8512 2.93155 17.6042 2.72036 17.2873C2.50918 16.9704 2.39648 16.5978 2.39648 16.2167C2.39648 15.9636 2.4462 15.713 2.54278 15.4792C2.63937 15.2454 2.78093 15.033 2.9594 14.854C3.13787 14.6751 3.34971 14.5331 3.58288 14.4362C3.81606 14.3394 4.06597 14.2896 4.31836 14.2896Z" fill="url(#paint17_linear_180_23720)"/>
<path d="M4.31836 28.5552C4.69848 28.5552 5.07007 28.6682 5.38613 28.8799C5.70219 29.0917 5.94855 29.3927 6.09402 29.7448C6.23948 30.097 6.27751 30.4844 6.20335 30.8582C6.1292 31.2321 5.94619 31.5755 5.6774 31.845C5.40861 32.1145 5.06618 32.298 4.69337 32.3724C4.32055 32.4467 3.93407 32.4086 3.58288 32.2627C3.2317 32.1169 2.93155 31.8699 2.72036 31.5529C2.50918 31.236 2.39648 30.8634 2.39648 30.4823C2.39648 30.2292 2.4462 29.9786 2.54278 29.7448C2.63937 29.511 2.78093 29.2986 2.9594 29.1196C3.13787 28.9407 3.34971 28.7987 3.58288 28.7019C3.81606 28.605 4.06597 28.5552 4.31836 28.5552Z" fill="url(#paint18_linear_180_23720)"/>
<path d="M4.31836 42.8208C4.69848 42.8208 5.07007 42.9338 5.38613 43.1456C5.70219 43.3573 5.94855 43.6583 6.09402 44.0104C6.23948 44.3626 6.27751 44.7501 6.20335 45.1239C6.1292 45.4977 5.94619 45.8411 5.6774 46.1106C5.40861 46.3801 5.06618 46.5636 4.69337 46.638C4.32055 46.7124 3.93407 46.6742 3.58288 46.5283C3.2317 46.3825 2.93155 46.1355 2.72036 45.8186C2.50918 45.5017 2.39648 45.1291 2.39648 44.7479C2.39648 44.4948 2.4462 44.2443 2.54278 44.0104C2.63937 43.7766 2.78093 43.5642 2.9594 43.3852C3.13787 43.2063 3.34971 43.0643 3.58288 42.9675C3.81606 42.8706 4.06597 42.8208 4.31836 42.8208Z" fill="url(#paint19_linear_180_23720)"/>
</g>
<defs>
<linearGradient id="paint0_linear_180_23720" x1="59.9906" y1="-3.62154" x2="64.9968" y2="-2.73574" gradientUnits="userSpaceOnUse">
<stop stop-color="#62AEF3"/>
<stop offset="0.51" stop-color="#254CB1"/>
<stop offset="1" stop-color="#414DBC"/>
</linearGradient>
<linearGradient id="paint1_linear_180_23720" x1="59.9906" y1="10.668" x2="64.9968" y2="11.5538" gradientUnits="userSpaceOnUse">
<stop stop-color="#62AEF3"/>
<stop offset="0.51" stop-color="#254CB1"/>
<stop offset="1" stop-color="#414DBC"/>
</linearGradient>
<linearGradient id="paint2_linear_180_23720" x1="59.9906" y1="24.9336" x2="64.9968" y2="25.8194" gradientUnits="userSpaceOnUse">
<stop stop-color="#62AEF3"/>
<stop offset="0.51" stop-color="#254CB1"/>
<stop offset="1" stop-color="#414DBC"/>
</linearGradient>
<linearGradient id="paint3_linear_180_23720" x1="59.9906" y1="39.1993" x2="64.9968" y2="40.0851" gradientUnits="userSpaceOnUse">
<stop stop-color="#62AEF3"/>
<stop offset="0.51" stop-color="#254CB1"/>
<stop offset="1" stop-color="#414DBC"/>
</linearGradient>
<linearGradient id="paint4_linear_180_23720" x1="45.5941" y1="-3.59712" x2="50.6003" y2="-2.7113" gradientUnits="userSpaceOnUse">
<stop stop-color="#62AEF3"/>
<stop offset="0.51" stop-color="#254CB1"/>
<stop offset="1" stop-color="#414DBC"/>
</linearGradient>
<linearGradient id="paint5_linear_180_23720" x1="45.6063" y1="10.668" x2="50.6125" y2="11.5538" gradientUnits="userSpaceOnUse">
<stop stop-color="#62AEF3"/>
<stop offset="0.51" stop-color="#254CB1"/>
<stop offset="1" stop-color="#414DBC"/>
</linearGradient>
<linearGradient id="paint6_linear_180_23720" x1="45.6063" y1="24.9336" x2="50.6125" y2="25.8194" gradientUnits="userSpaceOnUse">
<stop stop-color="#62AEF3"/>
<stop offset="0.51" stop-color="#254CB1"/>
<stop offset="1" stop-color="#414DBC"/>
</linearGradient>
<linearGradient id="paint7_linear_180_23720" x1="45.6063" y1="39.1993" x2="50.6125" y2="40.0851" gradientUnits="userSpaceOnUse">
<stop stop-color="#62AEF3"/>
<stop offset="0.51" stop-color="#254CB1"/>
<stop offset="1" stop-color="#414DBC"/>
</linearGradient>
<linearGradient id="paint8_linear_180_23720" x1="31.2103" y1="-3.62154" x2="36.2165" y2="-2.73574" gradientUnits="userSpaceOnUse">
<stop stop-color="#62AEF3"/>
<stop offset="0.51" stop-color="#254CB1"/>
<stop offset="1" stop-color="#414DBC"/>
</linearGradient>
<linearGradient id="paint9_linear_180_23720" x1="31.2103" y1="10.668" x2="36.2165" y2="11.5538" gradientUnits="userSpaceOnUse">
<stop stop-color="#62AEF3"/>
<stop offset="0.51" stop-color="#254CB1"/>
<stop offset="1" stop-color="#414DBC"/>
</linearGradient>
<linearGradient id="paint10_linear_180_23720" x1="31.2103" y1="24.9336" x2="36.2165" y2="25.8194" gradientUnits="userSpaceOnUse">
<stop stop-color="#62AEF3"/>
<stop offset="0.51" stop-color="#254CB1"/>
<stop offset="1" stop-color="#414DBC"/>
</linearGradient>
<linearGradient id="paint11_linear_180_23720" x1="31.2103" y1="39.1993" x2="36.2165" y2="40.0851" gradientUnits="userSpaceOnUse">
<stop stop-color="#62AEF3"/>
<stop offset="0.51" stop-color="#254CB1"/>
<stop offset="1" stop-color="#414DBC"/>
</linearGradient>
<linearGradient id="paint12_linear_180_23720" x1="16.8138" y1="-3.62154" x2="21.8201" y2="-2.73571" gradientUnits="userSpaceOnUse">
<stop stop-color="#62AEF3"/>
<stop offset="0.51" stop-color="#254CB1"/>
<stop offset="1" stop-color="#414DBC"/>
</linearGradient>
<linearGradient id="paint13_linear_180_23720" x1="16.8138" y1="10.668" x2="21.8201" y2="11.5538" gradientUnits="userSpaceOnUse">
<stop stop-color="#62AEF3"/>
<stop offset="0.51" stop-color="#254CB1"/>
<stop offset="1" stop-color="#414DBC"/>
</linearGradient>
<linearGradient id="paint14_linear_180_23720" x1="16.8138" y1="24.9336" x2="21.8201" y2="25.8195" gradientUnits="userSpaceOnUse">
<stop stop-color="#62AEF3"/>
<stop offset="0.51" stop-color="#254CB1"/>
<stop offset="1" stop-color="#414DBC"/>
</linearGradient>
<linearGradient id="paint15_linear_180_23720" x1="16.8138" y1="39.1993" x2="21.8201" y2="40.0851" gradientUnits="userSpaceOnUse">
<stop stop-color="#62AEF3"/>
<stop offset="0.51" stop-color="#254CB1"/>
<stop offset="1" stop-color="#414DBC"/>
</linearGradient>
<linearGradient id="paint16_linear_180_23720" x1="2.4178" y1="-3.62154" x2="7.424" y2="-2.73574" gradientUnits="userSpaceOnUse">
<stop stop-color="#62AEF3"/>
<stop offset="0.51" stop-color="#254CB1"/>
<stop offset="1" stop-color="#414DBC"/>
</linearGradient>
<linearGradient id="paint17_linear_180_23720" x1="2.4178" y1="10.668" x2="7.424" y2="11.5538" gradientUnits="userSpaceOnUse">
<stop stop-color="#62AEF3"/>
<stop offset="0.51" stop-color="#254CB1"/>
<stop offset="1" stop-color="#414DBC"/>
</linearGradient>
<linearGradient id="paint18_linear_180_23720" x1="2.4178" y1="24.9336" x2="7.424" y2="25.8194" gradientUnits="userSpaceOnUse">
<stop stop-color="#62AEF3"/>
<stop offset="0.51" stop-color="#254CB1"/>
<stop offset="1" stop-color="#414DBC"/>
</linearGradient>
<linearGradient id="paint19_linear_180_23720" x1="2.4178" y1="39.1993" x2="7.424" y2="40.0851" gradientUnits="userSpaceOnUse">
<stop stop-color="#62AEF3"/>
<stop offset="0.51" stop-color="#254CB1"/>
<stop offset="1" stop-color="#414DBC"/>
</linearGradient>
</defs>
</svg>
