<svg width="20" height="20" viewBox="0 0 20 20" fill="none" xmlns="http://www.w3.org/2000/svg">
<g clip-path="url(#clip0_304_35602)">
<mask id="path-1-inside-1_304_35602" fill="white">
<path fill-rule="evenodd" clip-rule="evenodd" d="M10.8 1C11.4627 1 12 1.53726 12 2.2V3.28988C12.4655 3.42843 12.9108 3.61411 13.3302 3.84138L14.1012 3.07036C14.5699 2.60173 15.3297 2.60173 15.7983 3.07036L16.9297 4.20173C17.3983 4.67036 17.3983 5.43016 16.9297 5.89879L16.1586 6.66981C16.3859 7.08922 16.5716 7.53446 16.7101 8H17.8C18.4627 8 19 8.53726 19 9.2V10.8C19 11.4627 18.4627 12 17.8 12L16.7101 12C16.5716 12.4655 16.3859 12.9108 16.1586 13.3302L16.9296 14.1012C17.3983 14.5699 17.3983 15.3297 16.9296 15.7983L15.7983 16.9297C15.3296 17.3983 14.5698 17.3983 14.1012 16.9297L13.3302 16.1586C12.9108 16.3859 12.4655 16.5716 12 16.7101L12 17.8C12 18.4627 11.4627 19 10.8 19H9.2C8.53726 19 8 18.4627 8 17.8V16.7101C7.53446 16.5716 7.08922 16.3859 6.66981 16.1586L5.89879 16.9297C5.43016 17.3983 4.67036 17.3983 4.20173 16.9297L3.07036 15.7983C2.60173 15.3297 2.60173 14.5699 3.07036 14.1012L3.84138 13.3302C3.61411 12.9108 3.42843 12.4655 3.28988 12H2.2C1.53726 12 1 11.4627 1 10.8L1 9.2C1 8.53726 1.53726 8 2.2 8H3.28988C3.42843 7.53446 3.6141 7.08922 3.84137 6.66981L3.07035 5.89879C2.60172 5.43016 2.60172 4.67036 3.07035 4.20173L4.20172 3.07036C4.67035 2.60173 5.43015 2.60173 5.89878 3.07036L6.6698 3.84138C7.08921 3.61411 7.53446 3.42843 8 3.28988V2.2C8 1.53726 8.53726 1 9.2 1L10.8 1ZM10 12C11.1046 12 12 11.1046 12 10C12 8.89543 11.1046 8 10 8C8.89543 8 8 8.89543 8 10C8 11.1046 8.89543 12 10 12Z"/>
</mask>
<path d="M12 3.28988H10.8V4.18476L11.6577 4.44002L12 3.28988ZM13.3302 3.84138L12.7585 4.89644L13.5457 5.32299L14.1787 4.68991L13.3302 3.84138ZM14.1012 3.07036L13.2527 2.22183L13.2527 2.22183L14.1012 3.07036ZM15.7983 3.07036L16.6468 2.22183V2.22183L15.7983 3.07036ZM16.9297 4.20173L16.0811 5.05026L16.9297 4.20173ZM16.9297 5.89879L16.0811 5.05026L16.0811 5.05026L16.9297 5.89879ZM16.1586 6.66981L15.3101 5.82129L14.677 6.45436L15.1036 7.24152L16.1586 6.66981ZM16.7101 8L15.56 8.3423L15.8152 9.2H16.7101V8ZM16.7101 12V10.8H15.8152L15.56 11.6577L16.7101 12ZM16.1586 13.3302L15.1036 12.7585L14.677 13.5457L15.3101 14.1787L16.1586 13.3302ZM16.9296 14.1012L16.0811 14.9498L16.0811 14.9498L16.9296 14.1012ZM16.9296 15.7983L17.7782 16.6468V16.6468L16.9296 15.7983ZM15.7983 16.9297L14.9497 16.0811L14.9497 16.0811L15.7983 16.9297ZM13.3302 16.1586L14.1787 15.3101L13.5456 14.677L12.7585 15.1036L13.3302 16.1586ZM12 16.7101L11.6577 15.56L10.8 15.8152V16.7101H12ZM8 16.7101H9.2V15.8152L8.3423 15.56L8 16.7101ZM6.66981 16.1586L7.24152 15.1036L6.45436 14.677L5.82128 15.3101L6.66981 16.1586ZM5.89879 16.9297L5.05026 16.0811L5.05026 16.0811L5.89879 16.9297ZM4.20173 16.9297L5.05026 16.0811H5.05026L4.20173 16.9297ZM3.07036 15.7983L3.91889 14.9498L3.91889 14.9498L3.07036 15.7983ZM3.07036 14.1012L2.22183 13.2527L3.07036 14.1012ZM3.84138 13.3302L4.68991 14.1787L5.32299 13.5457L4.89644 12.7585L3.84138 13.3302ZM3.28988 12L4.44002 11.6577L4.18476 10.8H3.28988V12ZM3.28988 8V9.2H4.18476L4.44002 8.3423L3.28988 8ZM3.84137 6.66981L4.89643 7.24153L5.32298 6.45436L4.6899 5.82129L3.84137 6.66981ZM3.07035 5.89879L2.22182 6.74732L2.22182 6.74732L3.07035 5.89879ZM3.07035 4.20173L2.22182 3.3532L2.22182 3.3532L3.07035 4.20173ZM4.20172 3.07036L5.05025 3.91889L4.20172 3.07036ZM5.89878 3.07036L6.7473 2.22183L6.7473 2.22183L5.89878 3.07036ZM6.6698 3.84138L5.82127 4.68991L6.45435 5.32299L7.24151 4.89644L6.6698 3.84138ZM8 3.28988L8.3423 4.44002L9.2 4.18476V3.28988H8ZM13.2 2.2C13.2 0.874517 12.1255 -0.2 10.8 -0.2V2.2V2.2H13.2ZM13.2 3.28988V2.2H10.8V3.28988H13.2ZM13.9019 2.78633C13.4104 2.51999 12.8884 2.30225 12.3423 2.13973L11.6577 4.44002C12.0427 4.55461 12.4112 4.70823 12.7585 4.89644L13.9019 2.78633ZM13.2527 2.22183L12.4817 2.99285L14.1787 4.68991L14.9498 3.91889L13.2527 2.22183ZM16.6468 2.22183C15.7096 1.28457 14.19 1.28457 13.2527 2.22183L14.9498 3.91889L14.9498 3.91889L16.6468 2.22183ZM17.7782 3.3532L16.6468 2.22183L14.9498 3.91889L16.0811 5.05026L17.7782 3.3532ZM17.7782 6.74731C18.7154 5.81006 18.7154 4.29046 17.7782 3.3532L16.0811 5.05026L16.0811 5.05026L17.7782 6.74731ZM17.0072 7.51834L17.7782 6.74731L16.0811 5.05026L15.3101 5.82129L17.0072 7.51834ZM17.8603 7.6577C17.6978 7.11166 17.48 6.58961 17.2137 6.0981L15.1036 7.24152C15.2918 7.58884 15.4454 7.95727 15.56 8.3423L17.8603 7.6577ZM17.8 6.8H16.7101V9.2L17.8 9.2V6.8ZM20.2 9.2C20.2 7.87451 19.1255 6.8 17.8 6.8V9.2H20.2ZM20.2 10.8V9.2H17.8V10.8H20.2ZM17.8 13.2C19.1255 13.2 20.2 12.1255 20.2 10.8H17.8L17.8 13.2ZM16.7101 13.2L17.8 13.2L17.8 10.8L16.7101 10.8V13.2ZM17.2137 13.9019C17.48 13.4104 17.6978 12.8884 17.8603 12.3423L15.56 11.6577C15.4454 12.0427 15.2918 12.4112 15.1036 12.7585L17.2137 13.9019ZM17.7782 13.2527L17.0071 12.4817L15.3101 14.1787L16.0811 14.9498L17.7782 13.2527ZM17.7782 16.6468C18.7154 15.7096 18.7154 14.19 17.7782 13.2527L16.0811 14.9498L16.0811 14.9498L17.7782 16.6468ZM16.6468 17.7782L17.7782 16.6468L16.0811 14.9498L14.9497 16.0811L16.6468 17.7782ZM13.2527 17.7782C14.1899 18.7154 15.7095 18.7154 16.6468 17.7782L14.9497 16.0811V16.0811L13.2527 17.7782ZM12.4817 17.0072L13.2527 17.7782L14.9497 16.0811L14.1787 15.3101L12.4817 17.0072ZM12.3423 17.8603C12.8883 17.6978 13.4104 17.48 13.9019 17.2137L12.7585 15.1036C12.4112 15.2918 12.0427 15.4454 11.6577 15.56L12.3423 17.8603ZM13.2 17.8L13.2 16.7101H10.8L10.8 17.8L13.2 17.8ZM10.8 20.2C12.1255 20.2 13.2 19.1255 13.2 17.8L10.8 17.8V20.2ZM9.2 20.2H10.8V17.8H9.2V20.2ZM6.8 17.8C6.8 19.1255 7.87452 20.2 9.2 20.2V17.8H6.8ZM6.8 16.7101V17.8H9.2L9.2 16.7101H6.8ZM6.0981 17.2137C6.58961 17.48 7.11165 17.6978 7.6577 17.8603L8.3423 15.56C7.95727 15.4454 7.58884 15.2918 7.24152 15.1036L6.0981 17.2137ZM6.74732 17.7782L7.51834 17.0072L5.82128 15.3101L5.05026 16.0811L6.74732 17.7782ZM3.3532 17.7782C4.29046 18.7154 5.81006 18.7154 6.74732 17.7782L5.05026 16.0811L5.05026 16.0811L3.3532 17.7782ZM2.22183 16.6468L3.3532 17.7782L5.05026 16.0811L3.91889 14.9498L2.22183 16.6468ZM2.22183 13.2527C1.28457 14.19 1.28457 15.7096 2.22183 16.6468L3.91889 14.9498V14.9498L2.22183 13.2527ZM2.99285 12.4817L2.22183 13.2527L3.91889 14.9498L4.68991 14.1787L2.99285 12.4817ZM2.13973 12.3423C2.30225 12.8884 2.51999 13.4104 2.78633 13.9019L4.89644 12.7585C4.70823 12.4112 4.55461 12.0427 4.44002 11.6577L2.13973 12.3423ZM2.2 13.2H3.28988V10.8H2.2V13.2ZM-0.2 10.8C-0.2 12.1255 0.874519 13.2 2.2 13.2V10.8H2.2H-0.2ZM-0.2 9.2L-0.2 10.8H2.2L2.2 9.2H-0.2ZM2.2 6.8C0.874517 6.8 -0.2 7.87452 -0.2 9.2H2.2L2.2 6.8ZM3.28988 6.8H2.2L2.2 9.2H3.28988L3.28988 6.8ZM2.78632 6.0981C2.51998 6.58961 2.30225 7.11166 2.13973 7.6577L4.44002 8.3423C4.55461 7.95727 4.70823 7.58884 4.89643 7.24153L2.78632 6.0981ZM2.22182 6.74732L2.99285 7.51834L4.6899 5.82129L3.91888 5.05026L2.22182 6.74732ZM2.22182 3.3532C1.28456 4.29046 1.28456 5.81006 2.22182 6.74732L3.91888 5.05026L3.91888 5.05026L2.22182 3.3532ZM3.35319 2.22183L2.22182 3.3532L3.91888 5.05026L5.05025 3.91889L3.35319 2.22183ZM6.7473 2.22183C5.81005 1.28457 4.29045 1.28457 3.35319 2.22183L5.05025 3.91889L5.05025 3.91889L6.7473 2.22183ZM7.51833 2.99285L6.7473 2.22183L5.05025 3.91889L5.82127 4.68991L7.51833 2.99285ZM7.6577 2.13974C7.11165 2.30225 6.5896 2.51999 6.09808 2.78633L7.24151 4.89644C7.58883 4.70823 7.95727 4.55461 8.3423 4.44002L7.6577 2.13974ZM6.8 2.2V3.28988L9.2 3.28988V2.2L6.8 2.2ZM9.2 -0.2C7.87452 -0.2 6.8 0.874519 6.8 2.2L9.2 2.2V2.2V-0.2ZM10.8 -0.2L9.2 -0.2V2.2L10.8 2.2V-0.2ZM10.8 10C10.8 10.4418 10.4418 10.8 10 10.8V13.2C11.7673 13.2 13.2 11.7673 13.2 10H10.8ZM10 9.2C10.4418 9.2 10.8 9.55817 10.8 10H13.2C13.2 8.23269 11.7673 6.8 10 6.8V9.2ZM9.2 10C9.2 9.55817 9.55817 9.2 10 9.2V6.8C8.23269 6.8 6.8 8.23269 6.8 10H9.2ZM10 10.8C9.55817 10.8 9.2 10.4418 9.2 10H6.8C6.8 11.7673 8.23269 13.2 10 13.2V10.8Z" fill="#979797" mask="url(#path-1-inside-1_304_35602)"/>
</g>
<defs>
<clipPath id="clip0_304_35602">
<rect width="20" height="20" fill="white"/>
</clipPath>
</defs>
</svg>
