<svg width="24" height="24" viewBox="0 0 24 24" fill="none" xmlns="http://www.w3.org/2000/svg">
<path fill-rule="evenodd" clip-rule="evenodd" d="M10.7721 2.52375C10.0801 3.068 9.31462 4.38675 8.73187 6.03825L8.39263 7H11.8704H15.3481L15.0089 6.03825C14.1484 3.599 12.9054 2 11.8704 2C11.6324 2 11.1381 2.23575 10.7721 2.52375ZM6.34713 3.711C5.27537 4.39075 3.37038 6.36425 3.37038 6.795C3.37038 6.90775 4.04113 7 4.86063 7H6.35113L6.63688 5.939C6.79388 5.35525 7.13812 4.45525 7.40163 3.939C7.97587 2.813 7.81713 2.77875 6.34713 3.711ZM16.3391 3.939C16.6026 4.45525 16.9469 5.35525 17.1039 5.939L17.3896 7H18.8801C19.6996 7 20.3704 6.90775 20.3704 6.795C20.3704 6.0925 16.8631 3 16.0664 3C15.9529 3 16.0759 3.4225 16.3391 3.939ZM2.17513 9.4375C1.94162 10.0057 1.94162 13.9943 2.17513 14.5625C2.32288 14.9228 2.67638 15 4.17513 15H5.99538V12V9H4.17513C2.67638 9 2.32288 9.07725 2.17513 9.4375ZM8.02788 9.5625C7.83263 10.291 7.83263 13.709 8.02788 14.4375C8.17563 14.9888 8.25337 15 11.8704 15C16.1541 15 15.8636 15.2183 15.8636 12C15.8636 8.78175 16.1541 9 11.8704 9C8.25337 9 8.17563 9.01125 8.02788 9.5625ZM17.7454 12V15.0188L19.6204 14.947L21.4954 14.875L21.7234 13.4375C21.8606 12.5717 21.8606 11.4283 21.7234 10.5625L21.4954 9.125L19.6204 9.053L17.7454 8.98125V12ZM3.37038 17.205C3.37038 17.9075 6.87762 21 7.67438 21C7.78788 21 7.66488 20.5775 7.40163 20.061C7.13812 19.5448 6.79388 18.6448 6.63688 18.061L6.35113 17H4.86063C4.04113 17 3.37038 17.0922 3.37038 17.205ZM8.73187 17.9618C9.59237 20.401 10.8354 22 11.8704 22C12.9054 22 14.1484 20.401 15.0089 17.9618L15.3481 17H11.8704H8.39263L8.73187 17.9618ZM17.1039 18.061C16.9469 18.6448 16.6026 19.5448 16.3391 20.061C16.0759 20.5775 15.9529 21 16.0664 21C16.8631 21 20.3704 17.9075 20.3704 17.205C20.3704 17.0922 19.6996 17 18.8801 17H17.3896L17.1039 18.061Z" fill="url(#paint0_linear_106_11763)"/>
<defs>
<linearGradient id="paint0_linear_106_11763" x1="2.10995" y1="-16.7926" x2="27.9413" y2="-12.2494" gradientUnits="userSpaceOnUse">
<stop stop-color="#62AEF3"/>
<stop offset="0.51" stop-color="#254CB1"/>
<stop offset="1" stop-color="#414DBC"/>
</linearGradient>
</defs>
</svg>
