<svg width="37" height="37" viewBox="0 0 37 37" fill="none" xmlns="http://www.w3.org/2000/svg">
<circle cx="18.5" cy="18.5" r="18.5" fill="url(#paint0_linear_241_1995)"/>
<path d="M12.75 10.5V25.5C12.75 26.0523 13.1977 26.5 13.75 26.5H24.25C24.8023 26.5 25.25 26.0523 25.25 25.5V10.5C25.25 9.94772 24.8023 9.5 24.25 9.5H13.75C13.1977 9.5 12.75 9.94772 12.75 10.5Z" stroke="white" stroke-width="1.2" stroke-linecap="round"/>
<path d="M19 19V20.5M19 22V20.5M19 20.5H20.5M19 20.5H17.5" stroke="white" stroke-width="1.2" stroke-linecap="round"/>
<path d="M15.3828 12.2C15.6415 12.2 15.8668 12.2426 16.0588 12.328C16.2508 12.4133 16.3988 12.536 16.5028 12.696C16.6068 12.856 16.6588 13.0426 16.6588 13.256C16.6588 13.4693 16.6068 13.656 16.5028 13.816C16.3988 13.976 16.2508 14.0986 16.0588 14.184C15.8668 14.2693 15.6415 14.312 15.3828 14.312H14.9788V15H14.0348V12.2H15.3828ZM15.3228 13.584C15.4508 13.584 15.5468 13.556 15.6108 13.5C15.6748 13.4413 15.7068 13.36 15.7068 13.256C15.7068 13.152 15.6748 13.072 15.6108 13.016C15.5468 12.9573 15.4508 12.928 15.3228 12.928H14.9788V13.584H15.3228Z" fill="white"/>
<path d="M17.9809 12.772C18.3649 12.772 18.6582 12.8586 18.8609 13.032C19.0635 13.2026 19.1649 13.4666 19.1649 13.824V15H18.3249V14.712C18.2209 14.9306 18.0142 15.04 17.7049 15.04C17.5315 15.04 17.3835 15.0106 17.2609 14.952C17.1409 14.8906 17.0489 14.8093 16.9849 14.708C16.9235 14.604 16.8929 14.488 16.8929 14.36C16.8929 14.144 16.9755 13.98 17.1409 13.868C17.3062 13.756 17.5569 13.7 17.8929 13.7H18.2569C18.2275 13.5293 18.0902 13.444 17.8449 13.444C17.7462 13.444 17.6462 13.46 17.5449 13.492C17.4435 13.5213 17.3569 13.5626 17.2849 13.616L16.9969 13.02C17.1222 12.9426 17.2729 12.8826 17.4489 12.84C17.6275 12.7946 17.8049 12.772 17.9809 12.772ZM17.9769 14.496C18.0409 14.496 18.0982 14.4786 18.1489 14.444C18.1995 14.4093 18.2369 14.3573 18.2609 14.288V14.136H18.0369C17.8529 14.136 17.7609 14.1973 17.7609 14.32C17.7609 14.3706 17.7795 14.4133 17.8169 14.448C17.8569 14.48 17.9102 14.496 17.9769 14.496Z" fill="white"/>
<path d="M20.4915 15.04C20.3049 15.04 20.1209 15.02 19.9395 14.98C19.7582 14.94 19.6115 14.888 19.4995 14.824L19.7475 14.228C19.8489 14.2893 19.9689 14.3373 20.1075 14.372C20.2462 14.4066 20.3809 14.424 20.5115 14.424C20.6155 14.424 20.6875 14.416 20.7275 14.4C20.7702 14.3813 20.7915 14.3546 20.7915 14.32C20.7915 14.2853 20.7649 14.2613 20.7115 14.248C20.6609 14.2346 20.5769 14.2213 20.4595 14.208C20.2809 14.1866 20.1289 14.16 20.0035 14.128C19.8782 14.0933 19.7675 14.028 19.6715 13.932C19.5782 13.836 19.5315 13.6986 19.5315 13.52C19.5315 13.3786 19.5742 13.252 19.6595 13.14C19.7449 13.028 19.8715 12.9386 20.0395 12.872C20.2102 12.8053 20.4142 12.772 20.6515 12.772C20.8169 12.772 20.9782 12.788 21.1355 12.82C21.2955 12.8493 21.4315 12.8933 21.5435 12.952L21.2955 13.548C21.1035 13.4413 20.8929 13.388 20.6635 13.388C20.4662 13.388 20.3675 13.4226 20.3675 13.492C20.3675 13.5266 20.3942 13.552 20.4475 13.568C20.5009 13.5813 20.5849 13.5946 20.6995 13.608C20.8782 13.6293 21.0289 13.6573 21.1515 13.692C21.2769 13.7266 21.3862 13.792 21.4795 13.888C21.5755 13.984 21.6235 14.1213 21.6235 14.3C21.6235 14.436 21.5809 14.56 21.4955 14.672C21.4102 14.784 21.2822 14.8733 21.1115 14.94C20.9409 15.0066 20.7342 15.04 20.4915 15.04Z" fill="white"/>
<path d="M22.8333 15.04C22.6466 15.04 22.4626 15.02 22.2813 14.98C22.0999 14.94 21.9533 14.888 21.8413 14.824L22.0893 14.228C22.1906 14.2893 22.3106 14.3373 22.4493 14.372C22.5879 14.4066 22.7226 14.424 22.8533 14.424C22.9573 14.424 23.0293 14.416 23.0693 14.4C23.1119 14.3813 23.1333 14.3546 23.1333 14.32C23.1333 14.2853 23.1066 14.2613 23.0533 14.248C23.0026 14.2346 22.9186 14.2213 22.8013 14.208C22.6226 14.1866 22.4706 14.16 22.3453 14.128C22.2199 14.0933 22.1093 14.028 22.0133 13.932C21.9199 13.836 21.8733 13.6986 21.8733 13.52C21.8733 13.3786 21.9159 13.252 22.0013 13.14C22.0866 13.028 22.2133 12.9386 22.3813 12.872C22.5519 12.8053 22.7559 12.772 22.9933 12.772C23.1586 12.772 23.3199 12.788 23.4773 12.82C23.6373 12.8493 23.7733 12.8933 23.8853 12.952L23.6373 13.548C23.4453 13.4413 23.2346 13.388 23.0053 13.388C22.8079 13.388 22.7093 13.4226 22.7093 13.492C22.7093 13.5266 22.7359 13.552 22.7893 13.568C22.8426 13.5813 22.9266 13.5946 23.0413 13.608C23.2199 13.6293 23.3706 13.6573 23.4933 13.692C23.6186 13.7266 23.7279 13.792 23.8213 13.888C23.9173 13.984 23.9653 14.1213 23.9653 14.3C23.9653 14.436 23.9226 14.56 23.8373 14.672C23.7519 14.784 23.6239 14.8733 23.4533 14.94C23.2826 15.0066 23.0759 15.04 22.8333 15.04Z" fill="white"/>
<defs>
<linearGradient id="paint0_linear_241_1995" x1="0.205198" y1="-34.7663" x2="48.3863" y2="-26.2179" gradientUnits="userSpaceOnUse">
<stop stop-color="#62AEF3"/>
<stop offset="0.51" stop-color="#254CB1"/>
<stop offset="1" stop-color="#414DBC"/>
</linearGradient>
</defs>
</svg>
