<svg width="24" height="24" viewBox="0 0 24 24" fill="none" xmlns="http://www.w3.org/2000/svg">
<path d="M12 12C12.55 12 13.021 11.8138 13.413 11.4414C13.8043 11.0696 14 10.6225 14 10.1C14 9.5775 13.8043 9.13005 13.413 8.75765C13.021 8.38588 12.55 8.2 12 8.2C11.45 8.2 10.9793 8.38588 10.588 8.75765C10.196 9.13005 10 9.5775 10 10.1C10 10.6225 10.196 11.0696 10.588 11.4414C10.9793 11.8138 11.45 12 12 12ZM12 21.5C9.31667 19.3308 7.31267 17.3159 5.988 15.4551C4.66267 13.595 4 11.8733 4 10.29C4 7.915 4.80433 6.02292 6.413 4.61375C8.021 3.20458 9.88333 2.5 12 2.5C14.1167 2.5 15.979 3.20458 17.587 4.61375C19.1957 6.02292 20 7.915 20 10.29C20 11.8733 19.3377 13.595 18.013 15.4551C16.6877 17.3159 14.6833 19.3308 12 21.5Z" fill="url(#paint0_linear_106_11747)"/>
<defs>
<linearGradient id="paint0_linear_106_11747" x1="4.08873" y1="-15.3529" x2="25.1104" y2="-12.2122" gradientUnits="userSpaceOnUse">
<stop stop-color="#62AEF3"/>
<stop offset="0.51" stop-color="#254CB1"/>
<stop offset="1" stop-color="#414DBC"/>
</linearGradient>
</defs>
</svg>
