<svg width="16" height="16" viewBox="0 0 16 16" fill="none" xmlns="http://www.w3.org/2000/svg">
<g clip-path="url(#clip0_106_5559)">
<path d="M15.8543 15.146L11.0121 10.2565C11.9146 9.17165 12.4585 7.77595 12.4585 6.25197C12.4585 2.79913 9.66956 0 6.22926 0C2.78897 0 0 2.79913 0 6.25197C0 9.70481 2.78897 12.5039 6.22926 12.5039C7.79231 12.5039 9.22006 11.9248 10.3139 10.97L15.1493 15.8535C15.3439 16.0488 15.6596 16.0488 15.8542 15.8535C16.0486 15.6582 16.0486 15.3416 15.8543 15.146ZM6.22926 11.5119C3.3349 11.5119 0.988459 9.15689 0.988459 6.25197C0.988459 3.34706 3.3349 0.992063 6.22926 0.992063C9.12363 0.992063 11.4701 3.34706 11.4701 6.25197C11.4701 9.15689 9.12363 11.5119 6.22926 11.5119Z" fill="#979797"/>
</g>
<defs>
<clipPath id="clip0_106_5559">
<rect width="16" height="16" fill="white"/>
</clipPath>
</defs>
</svg>
