<svg width="20" height="20" viewBox="0 0 20 20" fill="none" xmlns="http://www.w3.org/2000/svg">
<path fill-rule="evenodd" clip-rule="evenodd" d="M10.0001 8.81028C12.0277 8.81028 13.6714 7.16659 13.6714 5.13899C13.6714 3.11139 12.0277 1.46769 10.0001 1.46769C7.97247 1.46769 6.32878 3.11139 6.32878 5.13899C6.32878 7.16659 7.97247 8.81028 10.0001 8.81028ZM10.0001 9.97695C12.672 9.97695 14.838 7.81092 14.838 5.13899C14.838 2.46706 12.672 0.301025 10.0001 0.301025C7.32814 0.301025 5.16211 2.46706 5.16211 5.13899C5.16211 7.81092 7.32814 9.97695 10.0001 9.97695Z" fill="#979797"/>
<path fill-rule="evenodd" clip-rule="evenodd" d="M10.4167 12.0695H9.58337C6.08557 12.0695 3.25004 14.905 3.25004 18.4028V18.5325H16.75V18.4028C16.75 14.905 13.9145 12.0695 10.4167 12.0695ZM9.58337 10.9028C5.44124 10.9028 2.08337 14.2607 2.08337 18.4028V18.8658C2.08337 19.326 2.45647 19.6991 2.91671 19.6991H17.0834C17.5436 19.6991 17.9167 19.326 17.9167 18.8658V18.4028C17.9167 14.2607 14.5588 10.9028 10.4167 10.9028H9.58337Z" fill="#979797"/>
</svg>
