<svg width="37" height="37" viewBox="0 0 37 37" fill="none" xmlns="http://www.w3.org/2000/svg">
<circle cx="18.5" cy="18.5" r="18.5" fill="url(#paint0_linear_106_2345)"/>
<g clip-path="url(#clip0_106_2345)">
<path fill-rule="evenodd" clip-rule="evenodd" d="M18.5 17.1912C20.7303 17.1912 22.5384 15.3832 22.5384 13.1528C22.5384 10.9225 20.7303 9.11439 18.5 9.11439C16.2696 9.11439 14.4616 10.9225 14.4616 13.1528C14.4616 15.3832 16.2696 17.1912 18.5 17.1912ZM18.5 18.4746C21.4391 18.4746 23.8217 16.0919 23.8217 13.1528C23.8217 10.2137 21.4391 7.83105 18.5 7.83105C15.5609 7.83105 13.1782 10.2137 13.1782 13.1528C13.1782 16.0919 15.5609 18.4746 18.5 18.4746Z" fill="white"/>
<path fill-rule="evenodd" clip-rule="evenodd" d="M18.9583 20.7765H18.0416C14.194 20.7765 11.075 23.8956 11.075 27.7432V27.8858H25.925V27.7432C25.925 23.8956 22.8059 20.7765 18.9583 20.7765ZM18.0416 19.4932C13.4853 19.4932 9.79163 23.1868 9.79163 27.7432V28.2524C9.79163 28.7587 10.202 29.1691 10.7083 29.1691H26.2916C26.7979 29.1691 27.2083 28.7587 27.2083 28.2524V27.7432C27.2083 23.1868 23.5146 19.4932 18.9583 19.4932H18.0416Z" fill="white"/>
</g>
<defs>
<linearGradient id="paint0_linear_106_2345" x1="0.205198" y1="-34.7663" x2="48.3863" y2="-26.2179" gradientUnits="userSpaceOnUse">
<stop stop-color="#62AEF3"/>
<stop offset="0.51" stop-color="#254CB1"/>
<stop offset="1" stop-color="#414DBC"/>
</linearGradient>
<clipPath id="clip0_106_2345">
<rect width="22" height="22" fill="white" transform="translate(7.5 7.5)"/>
</clipPath>
</defs>
</svg>
