<svg width="24" height="24" viewBox="0 0 24 24" fill="none" xmlns="http://www.w3.org/2000/svg">
<path fill-rule="evenodd" clip-rule="evenodd" d="M3.24755 3.40129C2.44211 4.37177 3.71568 9.82034 5.43043 12.7407C6.63634 14.7943 9.20571 17.3637 11.2593 18.5696C14.1797 20.2843 19.6282 21.5579 20.5987 20.7524C21.0918 20.3432 21.149 16.2004 20.6669 15.8164C20.4953 15.6796 19.793 15.5036 19.1064 15.4252C18.4198 15.3466 17.3725 15.2043 16.779 15.1086C15.7351 14.9404 15.6597 14.9743 14.467 16.149L13.2342 17.3632L12.3004 16.8708C11.094 16.2346 7.76535 12.906 7.12919 11.6996L6.63684 10.7658L7.85099 9.53297C9.02569 8.34029 9.05965 8.26489 8.89137 7.22101C8.79575 6.62755 8.65343 5.58017 8.57479 4.89358C8.49639 4.20698 8.32037 3.50491 8.18355 3.33313C7.79956 2.85102 3.65676 2.90819 3.24755 3.40129Z" fill="url(#paint0_linear_106_11752)"/>
<defs>
<linearGradient id="paint0_linear_106_11752" x1="3.09983" y1="-13.9133" x2="26.5393" y2="-9.75466" gradientUnits="userSpaceOnUse">
<stop stop-color="#62AEF3"/>
<stop offset="0.51" stop-color="#254CB1"/>
<stop offset="1" stop-color="#414DBC"/>
</linearGradient>
</defs>
</svg>
