<svg width="20" height="21" viewBox="0 0 20 21" fill="none" xmlns="http://www.w3.org/2000/svg">
<mask id="path-1-inside-1_472_69661" fill="white">
<path fill-rule="evenodd" clip-rule="evenodd" d="M6.70711 2.79289C6.89464 2.60536 7.149 2.5 7.41421 2.5H12.5858C12.851 2.5 13.1054 2.60536 13.2929 2.79289L15 4.5H17.5C18.6046 4.5 19.5 5.39543 19.5 6.5V16.5C19.5 17.6046 18.6046 18.5 17.5 18.5H2.5C1.39543 18.5 0.5 17.6046 0.5 16.5V6.5C0.5 5.39543 1.39543 4.5 2.5 4.5H5L6.70711 2.79289ZM10 14.0745C11.6914 14.0745 13.0625 12.7033 13.0625 11.012C13.0625 9.32059 11.6914 7.94946 10 7.94946C8.30863 7.94946 6.9375 9.32059 6.9375 11.012C6.9375 12.7033 8.30863 14.0745 10 14.0745Z"/>
</mask>
<path d="M6.70711 2.79289L7.55564 3.64142V3.64142L6.70711 2.79289ZM13.2929 2.79289L12.4444 3.64142L12.4444 3.64142L13.2929 2.79289ZM15 4.5L14.1515 5.34853L14.5029 5.7H15V4.5ZM5 4.5V5.7H5.49706L5.84853 5.34853L5 4.5ZM7.41421 1.3C6.83074 1.3 6.27116 1.53178 5.85858 1.94437L7.55564 3.64142C7.51813 3.67893 7.46726 3.7 7.41421 3.7V1.3ZM12.5858 1.3H7.41421V3.7H12.5858V1.3ZM14.1414 1.94437C13.7288 1.53178 13.1693 1.3 12.5858 1.3V3.7C12.5327 3.7 12.4819 3.67893 12.4444 3.64142L14.1414 1.94437ZM15.8485 3.65147L14.1414 1.94437L12.4444 3.64142L14.1515 5.34853L15.8485 3.65147ZM17.5 3.3H15V5.7H17.5V3.3ZM20.7 6.5C20.7 4.73269 19.2673 3.3 17.5 3.3V5.7C17.9418 5.7 18.3 6.05817 18.3 6.5H20.7ZM20.7 16.5V6.5H18.3V16.5H20.7ZM17.5 19.7C19.2673 19.7 20.7 18.2673 20.7 16.5H18.3C18.3 16.9418 17.9418 17.3 17.5 17.3V19.7ZM2.5 19.7H17.5V17.3H2.5V19.7ZM-0.7 16.5C-0.7 18.2673 0.732689 19.7 2.5 19.7V17.3C2.05817 17.3 1.7 16.9418 1.7 16.5H-0.7ZM-0.7 6.5V16.5H1.7V6.5H-0.7ZM2.5 3.3C0.732689 3.3 -0.7 4.73269 -0.7 6.5H1.7C1.7 6.05817 2.05817 5.7 2.5 5.7V3.3ZM5 3.3H2.5V5.7H5V3.3ZM5.85858 1.94436L4.15147 3.65147L5.84853 5.34853L7.55564 3.64142L5.85858 1.94436ZM11.8625 11.012C11.8625 12.0406 11.0286 12.8745 10 12.8745V15.2745C12.3541 15.2745 14.2625 13.3661 14.2625 11.012H11.8625ZM10 9.14946C11.0286 9.14946 11.8625 9.98333 11.8625 11.012H14.2625C14.2625 8.65784 12.3541 6.74946 10 6.74946V9.14946ZM8.1375 11.012C8.1375 9.98333 8.97137 9.14946 10 9.14946V6.74946C7.64589 6.74946 5.7375 8.65784 5.7375 11.012H8.1375ZM10 12.8745C8.97137 12.8745 8.1375 12.0406 8.1375 11.012H5.7375C5.7375 13.3661 7.64589 15.2745 10 15.2745V12.8745Z" fill="url(#paint0_linear_472_69661)" mask="url(#path-1-inside-1_472_69661)"/>
<defs>
<linearGradient id="paint0_linear_472_69661" x1="0.605372" y1="-12.5341" x2="25.0412" y2="-7.38573" gradientUnits="userSpaceOnUse">
<stop stop-color="#62AEF3"/>
<stop offset="0.51" stop-color="#254CB1"/>
<stop offset="1" stop-color="#414DBC"/>
</linearGradient>
</defs>
</svg>
