<svg width="20" height="21" viewBox="0 0 20 21" fill="none" xmlns="http://www.w3.org/2000/svg">
<path fill-rule="evenodd" clip-rule="evenodd" d="M0 13.8003V14.5V16.5C0 17.6046 0.895431 18.5 2 18.5H18C19.1046 18.5 20 17.6046 20 16.5V15.5V14.756V4.5C20 3.39543 19.1046 2.5 18 2.5H2C0.895431 2.5 0 3.39543 0 4.5V13.8003ZM18.8 4.5V13.876L14.0904 10.4223C13.1427 9.72724 11.8465 9.75446 10.9287 10.4887L8.523 12.4132C7.96596 12.8589 7.16291 12.8144 6.65848 12.31L6.52845 12.1799C5.68483 11.3363 4.37532 11.1751 3.35228 11.7889L1.2 13.0803V4.5C1.2 4.05817 1.55817 3.7 2 3.7H18C18.4418 3.7 18.8 4.05817 18.8 4.5ZM3.96968 12.8179L1.2 14.4797V14.5V16.5C1.2 16.9418 1.55817 17.3 2 17.3H18C18.4418 17.3 18.8 16.9418 18.8 16.5V15.5V15.364L13.3808 11.39C12.8705 11.0157 12.1725 11.0304 11.6783 11.4257L9.27264 13.3503C8.23812 14.1779 6.74675 14.0953 5.80996 13.1585L5.67992 13.0284C5.22567 12.5742 4.52054 12.4874 3.96968 12.8179ZM6.8 7C6.8 7.71797 6.21797 8.3 5.5 8.3C4.78203 8.3 4.2 7.71797 4.2 7C4.2 6.28203 4.78203 5.7 5.5 5.7C6.21797 5.7 6.8 6.28203 6.8 7ZM8 7C8 8.38071 6.88071 9.5 5.5 9.5C4.11929 9.5 3 8.38071 3 7C3 5.61929 4.11929 4.5 5.5 4.5C6.88071 4.5 8 5.61929 8 7Z" fill="url(#paint0_linear_472_69664)"/>
<defs>
<linearGradient id="paint0_linear_472_69664" x1="0.110918" y1="-12.5341" x2="25.7152" y2="-6.85562" gradientUnits="userSpaceOnUse">
<stop stop-color="#62AEF3"/>
<stop offset="0.51" stop-color="#254CB1"/>
<stop offset="1" stop-color="#414DBC"/>
</linearGradient>
</defs>
</svg>
