<svg width="37" height="37" viewBox="0 0 37 37" fill="none" xmlns="http://www.w3.org/2000/svg">
<circle cx="18.5" cy="18.5" r="18.5" fill="url(#paint0_linear_241_1973)"/>
<path fill-rule="evenodd" clip-rule="evenodd" d="M18.35 10.55C18.35 10.191 18.641 9.89995 19 9.89995C19.359 9.89995 19.65 10.191 19.65 10.55V11.7H18.35V10.55ZM20.85 10.55V11.7H23.6269C23.9044 11.7 24.1636 11.8386 24.3175 12.0696L25.5826 13.9671L28.2493 17.9671L29.2106 19.4092C29.3015 19.5455 29.35 19.7057 29.35 19.8696V24.07C29.35 24.5283 28.9784 24.9 28.52 24.9H26.2481C26.1956 26.2343 25.0972 27.3 23.75 27.3C22.4028 27.3 21.3045 26.2343 21.252 24.9H16.2481C16.1956 26.2343 15.0972 27.3 13.75 27.3C12.4028 27.3 11.3045 26.2343 11.252 24.9H9.48002C9.02163 24.9 8.65002 24.5283 8.65002 24.07V12.53C8.65002 12.0716 9.02163 11.7 9.48002 11.7H17.15V10.55C17.15 9.52822 17.9783 8.69995 19 8.69995C20.0218 8.69995 20.85 9.52822 20.85 10.55ZM11.5044 23.7C11.9113 22.8708 12.764 22.3 13.75 22.3C14.736 22.3 15.5887 22.8708 15.9956 23.7H21.5044C21.9113 22.8708 22.764 22.3 23.75 22.3C24.736 22.3 25.5887 22.8708 25.9956 23.7H28.15V19.9816L27.4289 18.9H22.75C21.8664 18.9 21.15 18.1836 21.15 17.3V15.3C21.15 14.4163 21.8664 13.7 22.75 13.7H23.9622L23.4289 12.9H20.25H17.75H9.85002V23.7H11.5044ZM24.7622 14.9L26.6289 17.7H22.75C22.5291 17.7 22.35 17.5209 22.35 17.3V15.3C22.35 15.079 22.5291 14.9 22.75 14.9H24.7622ZM15.35 15.3C15.35 14.9686 15.0814 14.7 14.75 14.7C14.4187 14.7 14.15 14.9686 14.15 15.3V16.45H12.9711C12.6397 16.45 12.3711 16.7186 12.3711 17.05C12.3711 17.3813 12.6397 17.65 12.9711 17.65H14.15V18.8C14.15 19.1313 14.4187 19.4 14.75 19.4C15.0814 19.4 15.35 19.1313 15.35 18.8V17.65H16.5401C16.8715 17.65 17.1401 17.3813 17.1401 17.05C17.1401 16.7186 16.8715 16.45 16.5401 16.45H15.35V15.3ZM13.75 26.1C14.468 26.1 15.05 25.5179 15.05 24.8C15.05 24.082 14.468 23.5 13.75 23.5C13.0321 23.5 12.45 24.082 12.45 24.8C12.45 25.5179 13.0321 26.1 13.75 26.1ZM23.75 26.1C24.468 26.1 25.05 25.5179 25.05 24.8C25.05 24.082 24.468 23.5 23.75 23.5C23.0321 23.5 22.45 24.082 22.45 24.8C22.45 25.5179 23.0321 26.1 23.75 26.1Z" fill="white"/>
<defs>
<linearGradient id="paint0_linear_241_1973" x1="0.205198" y1="-34.7663" x2="48.3863" y2="-26.2179" gradientUnits="userSpaceOnUse">
<stop stop-color="#62AEF3"/>
<stop offset="0.51" stop-color="#254CB1"/>
<stop offset="1" stop-color="#414DBC"/>
</linearGradient>
</defs>
</svg>
