<svg width="37" height="37" viewBox="0 0 37 37" fill="none" xmlns="http://www.w3.org/2000/svg">
<circle cx="18.5" cy="18.5" r="18.5" fill="url(#paint0_linear_106_4001)"/>
<path d="M29.7446 27.8209L23.4288 21.4432C24.6059 20.0282 25.3154 18.2077 25.3154 16.2199C25.3154 11.7162 21.6776 8.06519 17.1903 8.06519C12.703 8.06519 9.06519 11.7162 9.06519 16.2199C9.06519 20.7236 12.703 24.3747 17.1903 24.3747C19.2291 24.3747 21.0913 23.6192 22.5181 22.3738L28.8252 28.7437C29.079 28.9984 29.4908 28.9984 29.7446 28.7437C29.9981 28.4889 29.9981 28.076 29.7446 27.8209ZM17.1903 23.0807C13.4151 23.0807 10.3545 20.009 10.3545 16.2199C10.3545 12.4309 13.4151 9.35918 17.1903 9.35918C20.9656 9.35918 24.0261 12.4309 24.0261 16.2199C24.0261 20.009 20.9656 23.0807 17.1903 23.0807Z" fill="white"/>
<defs>
<linearGradient id="paint0_linear_106_4001" x1="0.205198" y1="-34.7663" x2="48.3863" y2="-26.2179" gradientUnits="userSpaceOnUse">
<stop stop-color="#62AEF3"/>
<stop offset="0.51" stop-color="#254CB1"/>
<stop offset="1" stop-color="#414DBC"/>
</linearGradient>
</defs>
</svg>
